<svg xmlns="http://www.w3.org/2000/svg" xmlns:xlink="http://www.w3.org/1999/xlink" width="180" zoomAndPan="magnify" viewBox="0 0 135 135.000003" height="180" preserveAspectRatio="xMidYMid meet" version="1.0"><defs><clipPath id="48d575180c"><path d="M 3.738281 25.246094 L 86.71875 25.246094 L 86.71875 99.898438 L 3.738281 99.898438 Z M 3.738281 25.246094 " clip-rule="nonzero"/></clipPath><clipPath id="a486c0843f"><path d="M 10.972656 47.921875 C 44.792969 28.3125 48.199219 26.433594 50.957031 25.730469 C 52.660156 25.316406 53.953125 25.199219 55.242188 25.433594 C 56.417969 25.671875 57.355469 26.140625 58.472656 26.960938 C 60 28.136719 61.46875 30.132812 63.167969 32.480469 C 65.636719 35.828125 68.628906 41.289062 71.566406 45.457031 C 74.5 49.566406 78.375 53.910156 80.726562 57.375 C 82.371094 59.785156 83.542969 61.957031 84.601562 63.777344 C 85.304688 65.066406 86.1875 65.890625 86.480469 67.179688 C 86.773438 68.648438 86.65625 70.703125 86.128906 71.996094 C 85.597656 73.113281 84.835938 73.816406 83.71875 74.636719 C 81.957031 75.988281 78.847656 76.8125 75.851562 78.394531 C 71.683594 80.6875 66.046875 84.089844 61.054688 87.320312 C 55.710938 90.785156 48.257812 97.007812 44.734375 98.652344 C 43.207031 99.414062 42.441406 99.535156 41.210938 99.652344 C 40.035156 99.828125 38.804688 99.945312 37.570312 99.652344 C 36.335938 99.355469 35.046875 98.59375 33.929688 97.890625 C 32.871094 97.183594 32.226562 96.65625 31.050781 95.363281 C 28.175781 92.3125 21.421875 82.976562 18.3125 78.394531 C 16.316406 75.519531 15.375 73.347656 13.730469 71.117188 C 12.207031 69.058594 10.386719 67.59375 8.917969 65.597656 C 7.332031 63.484375 5.453125 60.664062 4.632812 58.667969 C 4.101562 57.375 3.867188 56.320312 3.925781 55.203125 C 3.984375 53.96875 4.160156 52.796875 5.101562 51.5625 C 6.921875 49.273438 14.203125 45.105469 16.375 44.636719 C 17.136719 44.457031 17.546875 44.636719 18.019531 44.871094 C 18.488281 45.105469 19.015625 45.574219 19.191406 46.042969 C 19.484375 46.691406 19.425781 47.921875 19.132812 48.570312 C 18.898438 49.039062 18.371094 49.449219 17.902344 49.683594 C 17.371094 49.859375 16.726562 49.917969 16.199219 49.800781 C 15.667969 49.683594 15.082031 49.390625 14.789062 48.921875 C 14.378906 48.335938 14.082031 47.160156 14.320312 46.457031 C 14.554688 45.75 15.433594 44.988281 16.082031 44.695312 C 16.609375 44.515625 17.253906 44.578125 17.78125 44.753906 C 18.253906 44.929688 18.78125 45.398438 19.074219 45.808594 C 19.367188 46.277344 19.542969 46.925781 19.484375 47.453125 C 19.425781 47.980469 19.308594 48.394531 18.78125 49.039062 C 17.546875 50.625 10.207031 53.675781 9.796875 56.203125 C 9.445312 58.316406 12.382812 60.664062 13.90625 62.71875 C 15.492188 64.832031 17.488281 66.652344 19.074219 68.765625 C 20.601562 70.878906 21.480469 72.9375 23.242188 75.519531 C 25.828125 79.335938 31.289062 86.265625 33.519531 89.140625 C 34.515625 90.492188 34.867188 91.253906 35.808594 92.078125 C 36.746094 92.898438 37.863281 93.957031 38.980469 94.132812 C 40.09375 94.308594 40.976562 94.015625 42.503906 93.308594 C 46.140625 91.722656 53.953125 85.089844 59.53125 81.566406 C 64.636719 78.277344 71.15625 74.402344 74.679688 72.640625 C 76.4375 71.703125 77.90625 71.761719 78.847656 70.820312 C 79.667969 70 80.3125 68.882812 80.195312 67.476562 C 79.960938 64.890625 75.617188 59.84375 73.386719 56.847656 C 71.625 54.441406 70.039062 53.265625 68.160156 50.742188 C 65.578125 47.21875 62.113281 40.757812 59.589844 37.238281 C 57.886719 34.828125 56.535156 32.070312 54.890625 31.367188 C 53.773438 30.894531 52.484375 31.425781 51.308594 31.71875 C 50.136719 31.953125 49.605469 32.304688 47.902344 33.125 C 42.382812 35.828125 17.960938 51.914062 13.4375 53.03125 C 12.382812 53.324219 11.96875 53.207031 11.382812 52.972656 C 10.796875 52.738281 10.207031 52.152344 9.914062 51.5625 C 9.679688 51.035156 9.5625 50.152344 9.738281 49.566406 C 9.914062 48.980469 10.972656 47.921875 10.972656 47.921875 " clip-rule="nonzero"/></clipPath><clipPath id="c92bc609db"><path d="M 0.738281 0.246094 L 83.71875 0.246094 L 83.71875 74.898438 L 0.738281 74.898438 Z M 0.738281 0.246094 " clip-rule="nonzero"/></clipPath><clipPath id="f8b09fe774"><path d="M 7.972656 22.921875 C 41.792969 3.3125 45.199219 1.433594 47.957031 0.730469 C 49.660156 0.316406 50.953125 0.199219 52.242188 0.433594 C 53.417969 0.671875 54.355469 1.140625 55.472656 1.960938 C 57 3.136719 58.46875 5.132812 60.167969 7.480469 C 62.636719 10.828125 65.628906 16.289062 68.566406 20.457031 C 71.5 24.566406 75.375 28.910156 77.726562 32.375 C 79.371094 34.785156 80.542969 36.957031 81.601562 38.777344 C 82.304688 40.066406 83.1875 40.890625 83.480469 42.179688 C 83.773438 43.648438 83.65625 45.703125 83.128906 46.996094 C 82.597656 48.113281 81.835938 48.816406 80.71875 49.636719 C 78.957031 50.988281 75.847656 51.8125 72.851562 53.394531 C 68.683594 55.6875 63.046875 59.089844 58.054688 62.320312 C 52.710938 65.785156 45.257812 72.007812 41.734375 73.652344 C 40.207031 74.414062 39.441406 74.535156 38.210938 74.652344 C 37.035156 74.828125 35.804688 74.945312 34.570312 74.652344 C 33.335938 74.355469 32.046875 73.59375 30.929688 72.890625 C 29.871094 72.183594 29.226562 71.65625 28.050781 70.363281 C 25.175781 67.3125 18.421875 57.976562 15.3125 53.394531 C 13.316406 50.519531 12.375 48.347656 10.730469 46.117188 C 9.207031 44.058594 7.386719 42.59375 5.917969 40.597656 C 4.332031 38.484375 2.453125 35.664062 1.632812 33.667969 C 1.101562 32.375 0.867188 31.320312 0.925781 30.203125 C 0.984375 28.96875 1.160156 27.796875 2.101562 26.5625 C 3.921875 24.273438 11.203125 20.105469 13.375 19.636719 C 14.136719 19.457031 14.546875 19.636719 15.019531 19.871094 C 15.488281 20.105469 16.015625 20.574219 16.191406 21.042969 C 16.484375 21.691406 16.425781 22.921875 16.132812 23.570312 C 15.898438 24.039062 15.371094 24.449219 14.902344 24.683594 C 14.371094 24.859375 13.726562 24.917969 13.199219 24.800781 C 12.667969 24.683594 12.082031 24.390625 11.789062 23.921875 C 11.378906 23.335938 11.082031 22.160156 11.320312 21.457031 C 11.554688 20.75 12.433594 19.988281 13.082031 19.695312 C 13.609375 19.515625 14.253906 19.578125 14.78125 19.753906 C 15.253906 19.929688 15.78125 20.398438 16.074219 20.808594 C 16.367188 21.277344 16.542969 21.925781 16.484375 22.453125 C 16.425781 22.980469 16.308594 23.394531 15.78125 24.039062 C 14.546875 25.625 7.207031 28.675781 6.796875 31.203125 C 6.445312 33.316406 9.382812 35.664062 10.90625 37.71875 C 12.492188 39.832031 14.488281 41.652344 16.074219 43.765625 C 17.601562 45.878906 18.480469 47.9375 20.242188 50.519531 C 22.828125 54.335938 28.289062 61.265625 30.519531 64.140625 C 31.515625 65.492188 31.867188 66.253906 32.808594 67.078125 C 33.746094 67.898438 34.863281 68.957031 35.980469 69.132812 C 37.09375 69.308594 37.976562 69.015625 39.503906 68.308594 C 43.140625 66.722656 50.953125 60.089844 56.53125 56.566406 C 61.636719 53.277344 68.15625 49.402344 71.679688 47.640625 C 73.4375 46.703125 74.90625 46.761719 75.847656 45.820312 C 76.667969 45 77.3125 43.882812 77.195312 42.476562 C 76.960938 39.890625 72.617188 34.84375 70.386719 31.847656 C 68.625 29.441406 67.039062 28.265625 65.160156 25.742188 C 62.578125 22.21875 59.113281 15.757812 56.589844 12.238281 C 54.886719 9.828125 53.535156 7.070312 51.890625 6.367188 C 50.773438 5.894531 49.484375 6.425781 48.308594 6.71875 C 47.136719 6.953125 46.605469 7.304688 44.902344 8.125 C 39.382812 10.828125 14.960938 26.914062 10.4375 28.03125 C 9.382812 28.324219 8.96875 28.207031 8.382812 27.972656 C 7.796875 27.738281 7.207031 27.152344 6.914062 26.5625 C 6.679688 26.035156 6.5625 25.152344 6.738281 24.566406 C 6.914062 23.980469 7.972656 22.921875 7.972656 22.921875 " clip-rule="nonzero"/></clipPath><clipPath id="15e46d1d6c"><rect x="0" width="84" y="0" height="75"/></clipPath><clipPath id="5459c57491"><path d="M 63.449219 6 L 112 6 L 112 62.257812 L 63.449219 62.257812 Z M 63.449219 6 " clip-rule="nonzero"/></clipPath><clipPath id="a25fe495a8"><path d="M 63.523438 39.527344 C 64.871094 27.371094 66.28125 22.089844 67.339844 18.390625 C 68.21875 15.394531 68.984375 12.460938 70.039062 10.523438 C 70.742188 9.171875 71.332031 8.171875 72.328125 7.410156 C 73.269531 6.644531 74.5 6.117188 75.792969 6.058594 C 77.203125 5.941406 78.90625 6.292969 80.492188 7.058594 C 82.722656 8.171875 84.601562 9.992188 87.300781 12.753906 C 92.46875 18.15625 103.566406 32.890625 107.5 39.058594 C 109.4375 42.167969 110.671875 44.339844 111.316406 46.457031 C 111.726562 47.863281 112.019531 49.039062 111.785156 50.210938 C 111.492188 51.503906 110.613281 52.796875 109.378906 53.792969 C 107.558594 55.320312 104.386719 56.085938 100.980469 57.140625 C 95.992188 58.609375 84.71875 61.367188 82.191406 61.25 C 81.546875 61.25 81.429688 60.839844 80.960938 60.898438 C 80.3125 60.957031 79.550781 62.015625 78.671875 62.074219 C 77.613281 62.191406 75.792969 61.664062 75.03125 60.839844 C 74.265625 60.019531 73.738281 58.257812 74.03125 57.140625 C 74.265625 56.027344 75.558594 54.675781 76.496094 54.207031 C 77.320312 53.792969 78.316406 53.792969 79.140625 54.089844 C 80.136719 54.441406 81.546875 55.671875 81.898438 56.730469 C 82.253906 57.847656 81.839844 59.664062 81.253906 60.546875 C 80.785156 61.25 79.902344 61.78125 79.082031 62.015625 C 78.316406 62.191406 77.261719 62.132812 76.496094 61.839844 C 75.675781 61.542969 74.914062 60.839844 74.5 60.136719 C 74.03125 59.429688 73.855469 58.375 73.914062 57.550781 C 74.03125 56.730469 74.382812 55.847656 75.03125 55.203125 C 75.96875 54.265625 77.554688 53.910156 79.726562 53.265625 C 84.070312 51.914062 95.816406 49.039062 99.984375 49.039062 C 101.804688 48.980469 103.507812 50.332031 103.976562 49.742188 C 104.5625 48.980469 102.214844 45.574219 100.394531 42.578125 C 96.929688 36.941406 87.183594 24.613281 82.839844 19.386719 C 80.433594 16.570312 78.4375 12.8125 77.027344 13.105469 C 75.617188 13.339844 75.03125 17.566406 74.089844 20.328125 C 72.917969 23.851562 71.390625 28.722656 70.566406 32.480469 C 69.863281 35.59375 70.097656 39.527344 69.160156 41.113281 C 68.746094 41.875 68.160156 42.226562 67.515625 42.460938 C 66.867188 42.699219 65.988281 42.636719 65.34375 42.402344 C 64.753906 42.109375 64.109375 41.464844 63.816406 40.9375 C 63.582031 40.464844 63.523438 39.527344 63.523438 39.527344 " clip-rule="nonzero"/></clipPath><clipPath id="33a4242b0d"><path d="M 0.492188 0 L 49 0 L 49 56.257812 L 0.492188 56.257812 Z M 0.492188 0 " clip-rule="nonzero"/></clipPath><clipPath id="513b587df1"><path d="M 0.523438 33.527344 C 1.871094 21.371094 3.28125 16.089844 4.339844 12.390625 C 5.21875 9.394531 5.984375 6.460938 7.039062 4.523438 C 7.742188 3.171875 8.332031 2.171875 9.328125 1.410156 C 10.269531 0.644531 11.5 0.117188 12.792969 0.0585938 C 14.203125 -0.0585938 15.90625 0.292969 17.492188 1.058594 C 19.722656 2.171875 21.601562 3.992188 24.300781 6.753906 C 29.46875 12.15625 40.566406 26.890625 44.5 33.058594 C 46.4375 36.167969 47.671875 38.339844 48.316406 40.457031 C 48.726562 41.863281 49.019531 43.039062 48.785156 44.210938 C 48.492188 45.503906 47.613281 46.796875 46.378906 47.792969 C 44.558594 49.320312 41.386719 50.085938 37.980469 51.140625 C 32.992188 52.609375 21.71875 55.367188 19.191406 55.25 C 18.546875 55.25 18.429688 54.839844 17.960938 54.898438 C 17.3125 54.957031 16.550781 56.015625 15.671875 56.074219 C 14.613281 56.191406 12.792969 55.664062 12.03125 54.839844 C 11.265625 54.019531 10.738281 52.257812 11.03125 51.140625 C 11.265625 50.027344 12.558594 48.675781 13.496094 48.207031 C 14.320312 47.792969 15.316406 47.792969 16.140625 48.089844 C 17.136719 48.441406 18.546875 49.671875 18.898438 50.730469 C 19.253906 51.847656 18.839844 53.664062 18.253906 54.546875 C 17.785156 55.25 16.902344 55.78125 16.082031 56.015625 C 15.316406 56.191406 14.261719 56.132812 13.496094 55.839844 C 12.675781 55.542969 11.914062 54.839844 11.5 54.136719 C 11.03125 53.429688 10.855469 52.375 10.914062 51.550781 C 11.03125 50.730469 11.382812 49.847656 12.03125 49.203125 C 12.96875 48.265625 14.554688 47.910156 16.726562 47.265625 C 21.070312 45.914062 32.816406 43.039062 36.984375 43.039062 C 38.804688 42.980469 40.507812 44.332031 40.976562 43.742188 C 41.5625 42.980469 39.214844 39.574219 37.394531 36.578125 C 33.929688 30.941406 24.183594 18.613281 19.839844 13.386719 C 17.433594 10.570312 15.4375 6.8125 14.027344 7.105469 C 12.617188 7.339844 12.03125 11.566406 11.089844 14.328125 C 9.917969 17.851562 8.390625 22.722656 7.566406 26.480469 C 6.863281 29.59375 7.097656 33.527344 6.160156 35.113281 C 5.746094 35.875 5.160156 36.226562 4.515625 36.460938 C 3.867188 36.699219 2.988281 36.636719 2.34375 36.402344 C 1.753906 36.109375 1.109375 35.464844 0.816406 34.9375 C 0.582031 34.464844 0.523438 33.527344 0.523438 33.527344 " clip-rule="nonzero"/></clipPath><clipPath id="9abf0f2e34"><rect x="0" width="49" y="0" height="57"/></clipPath><clipPath id="6b7a556c50"><path d="M 8.320312 11.570312 L 107.5625 11.570312 L 107.5625 97.488281 L 8.320312 97.488281 Z M 8.320312 11.570312 " clip-rule="nonzero"/></clipPath><clipPath id="b4dfae371b"><path d="M 8.566406 54.265625 C 11.734375 50.035156 12.851562 49.332031 13.964844 48.570312 C 14.964844 47.863281 16.023438 47.21875 17.195312 46.515625 C 18.371094 45.867188 19.71875 45.164062 20.953125 44.515625 C 22.128906 43.871094 23.300781 43.34375 24.476562 42.636719 C 25.652344 41.992188 26.765625 41.230469 27.941406 40.464844 C 29.234375 39.703125 30.640625 38.820312 31.992188 38.058594 C 33.285156 37.355469 34.632812 36.707031 35.867188 35.945312 C 36.984375 35.300781 37.921875 34.652344 38.980469 33.949219 C 40.035156 33.246094 41.09375 32.480469 42.207031 31.71875 C 43.324219 31.011719 44.382812 30.074219 45.730469 29.546875 C 47.199219 28.957031 49.195312 28.605469 50.78125 28.546875 C 52.132812 28.488281 53.421875 28.664062 54.65625 28.957031 C 55.832031 29.25 57.003906 29.546875 57.945312 30.191406 C 58.941406 30.953125 59.648438 32.1875 60.46875 33.246094 C 61.289062 34.359375 62.054688 35.59375 62.757812 36.589844 C 63.347656 37.414062 63.992188 38 64.519531 38.761719 C 64.988281 39.527344 65.578125 41.230469 65.871094 41.171875 C 66.222656 41.113281 65.929688 38.527344 66.222656 37.121094 C 66.515625 35.652344 67.339844 33.65625 67.632812 32.539062 C 67.808594 31.894531 67.808594 31.367188 67.925781 31.011719 C 67.984375 30.835938 68.101562 30.660156 68.101562 30.542969 C 68.101562 30.484375 68.101562 30.484375 68.101562 30.367188 C 68.042969 30.308594 67.984375 29.957031 67.984375 29.957031 C 67.984375 29.957031 68.042969 29.664062 68.042969 29.546875 C 68.042969 29.429688 68.042969 29.132812 68.042969 29.132812 C 68.042969 29.132812 68.160156 28.839844 68.160156 28.722656 C 68.21875 28.546875 68.335938 28.3125 68.335938 28.3125 C 68.335938 28.3125 68.453125 28.078125 68.511719 27.902344 C 68.628906 27.785156 68.746094 27.550781 68.746094 27.550781 C 68.746094 27.550781 68.984375 27.371094 69.042969 27.253906 C 69.160156 27.136719 69.394531 26.960938 69.394531 26.960938 C 69.394531 26.960938 69.453125 26.960938 69.511719 26.84375 C 69.804688 26.492188 70.390625 24.203125 70.742188 22.910156 C 71.039062 21.734375 71.214844 20.621094 71.566406 19.445312 C 71.859375 18.273438 72.035156 16.921875 72.5625 15.746094 C 73.152344 14.515625 73.796875 12.8125 74.914062 12.164062 C 76.144531 11.519531 78.316406 11.695312 79.726562 12.164062 C 81.078125 12.578125 82.132812 13.808594 83.132812 14.75 C 84.070312 15.628906 84.777344 16.570312 85.539062 17.507812 C 86.304688 18.449219 87.125 19.269531 87.886719 20.269531 C 88.652344 21.207031 89.296875 22.207031 90.003906 23.261719 C 90.707031 24.378906 91.410156 25.433594 92.058594 26.667969 C 92.703125 27.960938 93.171875 29.605469 93.703125 30.894531 C 94.230469 32.128906 94.699219 33.304688 95.34375 34.359375 C 95.992188 35.476562 96.753906 36.414062 97.519531 37.355469 C 98.222656 38.351562 99.042969 39.351562 99.808594 40.289062 C 100.570312 41.230469 101.453125 42.636719 102.097656 42.992188 C 102.449219 43.167969 102.976562 43.109375 102.976562 43.167969 C 102.976562 43.109375 103.332031 43.109375 103.449219 43.109375 C 103.625 43.109375 103.917969 43.109375 103.976562 43.109375 C 103.976562 43.109375 104.269531 43.167969 104.386719 43.226562 C 104.5625 43.226562 104.855469 43.285156 104.855469 43.285156 C 104.914062 43.285156 105.152344 43.460938 105.328125 43.519531 C 105.445312 43.578125 105.738281 43.695312 105.738281 43.695312 C 105.738281 43.695312 105.972656 43.929688 106.089844 43.988281 C 106.207031 44.105469 106.441406 44.28125 106.5 44.28125 C 106.5 44.339844 106.675781 44.578125 106.734375 44.695312 C 106.855469 44.8125 107.03125 45.046875 107.03125 45.046875 C 107.03125 45.046875 107.148438 45.339844 107.207031 45.515625 C 107.265625 45.632812 107.441406 45.925781 107.441406 45.925781 C 107.441406 45.925781 107.441406 46.277344 107.5 46.394531 C 107.5 46.574219 107.558594 46.867188 107.558594 46.867188 C 107.558594 46.867188 107.558594 47.21875 107.5 47.335938 C 107.5 47.511719 107.5 47.804688 107.5 47.804688 C 107.5 47.863281 107.382812 48.15625 107.324219 48.273438 C 107.265625 48.453125 107.207031 48.746094 107.207031 48.746094 C 107.207031 48.746094 107.03125 48.980469 106.914062 49.15625 C 106.855469 49.273438 106.675781 49.507812 106.675781 49.507812 C 106.675781 49.566406 107.03125 49.976562 106.972656 50.332031 C 106.792969 51.09375 104.679688 53.324219 103.390625 53.792969 C 102.273438 54.207031 100.921875 53.617188 99.75 53.5 C 98.75 53.324219 97.871094 52.914062 96.929688 52.972656 C 95.933594 52.972656 95.050781 53.617188 93.996094 53.851562 C 92.878906 54.03125 91.644531 54.089844 90.355469 54.207031 C 88.945312 54.324219 87.242188 54.265625 85.773438 54.441406 C 84.484375 54.617188 83.367188 55.027344 82.074219 55.320312 C 80.667969 55.671875 78.789062 56.671875 77.671875 56.4375 C 76.96875 56.320312 76.675781 55.378906 76.027344 55.261719 C 75.382812 55.085938 74.148438 55.613281 73.738281 55.671875 C 73.5625 55.730469 73.445312 55.730469 73.445312 55.730469 C 73.445312 55.789062 75.382812 55.671875 76.085938 56.203125 C 77.027344 56.789062 77.613281 58.433594 78.257812 59.605469 C 78.90625 60.78125 79.433594 62.132812 79.960938 63.304688 C 80.492188 64.480469 81.136719 65.421875 81.3125 66.710938 C 81.546875 68.179688 81.429688 70.351562 80.902344 71.703125 C 80.433594 72.875 79.609375 73.699219 78.730469 74.519531 C 77.730469 75.460938 76.261719 76.046875 75.03125 76.8125 C 73.914062 77.457031 72.800781 78.101562 71.625 78.75 C 70.507812 79.394531 69.394531 79.980469 68.21875 80.628906 C 66.867188 81.332031 65.285156 82.210938 63.875 82.859375 C 62.523438 83.445312 61.113281 83.679688 59.882812 84.328125 C 58.707031 84.855469 57.769531 85.5 56.769531 86.265625 C 55.710938 87.085938 54.714844 88.203125 53.714844 89.082031 C 52.71875 89.964844 51.71875 90.785156 50.664062 91.605469 C 49.605469 92.429688 48.492188 93.542969 47.257812 94.132812 C 46.082031 94.777344 44.382812 95.246094 43.441406 95.363281 C 42.972656 95.421875 42.679688 95.1875 42.265625 95.304688 C 41.679688 95.480469 40.386719 96.480469 40.328125 96.539062 C 40.328125 96.539062 40.09375 96.65625 39.917969 96.714844 C 39.800781 96.832031 39.507812 96.949219 39.507812 96.949219 C 39.507812 96.949219 39.15625 97.007812 39.039062 97.066406 C 38.863281 97.125 38.566406 97.183594 38.507812 97.183594 C 38.507812 97.183594 38.214844 97.183594 38.039062 97.183594 C 37.863281 97.183594 37.570312 97.183594 37.570312 97.183594 C 37.570312 97.183594 37.21875 97.125 37.101562 97.066406 C 36.925781 97.007812 36.628906 96.949219 36.628906 96.949219 C 36.570312 96.949219 36.335938 96.773438 36.160156 96.714844 C 36.042969 96.65625 35.75 96.480469 35.75 96.480469 C 35.75 96.480469 35.515625 96.246094 35.398438 96.128906 C 35.28125 96.070312 35.046875 95.835938 35.046875 95.835938 C 34.988281 95.835938 34.808594 95.539062 34.75 95.421875 C 34.632812 95.304688 34.457031 95.011719 34.457031 95.011719 C 34.457031 95.011719 34.339844 94.601562 34.28125 94.542969 C 34.28125 94.542969 34.222656 94.542969 34.164062 94.484375 C 33.871094 94.308594 31.933594 91.902344 31.875 91.78125 C 31.875 91.78125 31.816406 91.78125 31.816406 91.78125 C 31.816406 91.78125 31.699219 91.488281 31.640625 91.3125 C 31.582031 91.195312 31.464844 90.84375 31.464844 90.84375 C 31.464844 90.84375 31.464844 90.492188 31.40625 90.375 C 31.40625 90.199219 31.347656 89.84375 31.347656 89.84375 C 31.347656 89.84375 31.40625 89.492188 31.40625 89.316406 C 31.40625 89.199219 31.464844 88.847656 31.464844 88.847656 C 31.464844 88.847656 31.640625 88.613281 31.582031 88.496094 C 31.523438 88.203125 30.992188 87.847656 30.582031 87.378906 C 29.9375 86.617188 28.878906 85.382812 28.058594 84.445312 C 27.234375 83.445312 26.589844 82.507812 25.710938 81.566406 C 24.769531 80.449219 23.597656 79.335938 22.65625 78.21875 C 21.777344 77.222656 20.953125 76.222656 20.132812 75.167969 C 19.308594 74.109375 18.546875 73.054688 17.664062 71.996094 C 16.726562 70.820312 15.609375 69.648438 14.730469 68.472656 C 13.90625 67.417969 13.144531 66.359375 12.441406 65.300781 C 11.792969 64.304688 11.207031 63.304688 10.621094 62.308594 C 9.972656 61.191406 8.976562 60.253906 8.625 58.960938 C 8.269531 57.609375 8.566406 54.265625 8.566406 54.265625 M 18.253906 55.789062 C 19.191406 60.605469 20.074219 61.605469 20.835938 62.601562 C 21.597656 63.660156 22.480469 64.65625 23.300781 65.714844 C 24.242188 66.828125 25.238281 68.179688 26.179688 69.296875 C 26.941406 70.292969 27.53125 71.117188 28.351562 72.113281 C 29.292969 73.171875 30.40625 74.285156 31.347656 75.34375 C 32.167969 76.28125 32.929688 77.105469 33.636719 77.984375 C 34.398438 78.925781 35.105469 79.863281 35.925781 80.804688 C 36.746094 81.800781 37.511719 83.445312 38.625 83.855469 C 39.742188 84.265625 41.738281 83.621094 42.621094 83.328125 C 43.089844 83.152344 43.675781 82.800781 43.675781 82.683594 C 43.675781 82.625 43.558594 82.328125 43.558594 82.328125 C 43.558594 82.328125 43.558594 82.09375 43.558594 81.976562 C 43.558594 81.800781 43.5 81.566406 43.5 81.566406 C 43.5 81.566406 43.558594 81.332031 43.558594 81.214844 C 43.617188 81.097656 43.675781 80.863281 43.675781 80.863281 C 43.675781 80.863281 43.734375 80.628906 43.792969 80.511719 C 43.851562 80.449219 43.910156 80.332031 43.910156 80.273438 C 43.910156 80.273438 43.851562 80.273438 43.792969 80.273438 C 43.792969 80.273438 43.558594 80.15625 43.441406 80.097656 C 43.324219 80.039062 43.089844 79.980469 43.089844 79.980469 C 43.089844 79.980469 42.914062 79.804688 42.796875 79.746094 C 42.679688 79.6875 42.503906 79.511719 42.441406 79.511719 C 42.441406 79.511719 42.324219 79.335938 42.207031 79.21875 C 42.148438 79.101562 41.972656 78.925781 41.972656 78.925781 C 41.972656 78.925781 41.855469 78.691406 41.796875 78.570312 C 41.738281 78.453125 41.621094 78.21875 41.621094 78.21875 C 41.621094 78.21875 41.5625 77.984375 41.503906 77.867188 C 41.503906 77.75 41.445312 77.457031 41.445312 77.457031 C 41.445312 77.457031 41.445312 77.222656 41.445312 77.105469 C 41.445312 76.988281 41.445312 76.691406 41.445312 76.691406 C 41.445312 76.691406 41.503906 76.457031 41.5625 76.339844 C 41.5625 76.222656 41.679688 75.929688 41.679688 75.929688 C 41.679688 75.929688 41.738281 75.8125 41.738281 75.8125 C 41.738281 75.8125 41.679688 75.8125 41.621094 75.8125 C 41.621094 75.753906 41.445312 75.636719 41.328125 75.578125 C 41.210938 75.519531 40.976562 75.402344 40.976562 75.402344 C 40.917969 75.402344 40.742188 75.226562 40.683594 75.109375 C 40.5625 74.992188 40.386719 74.8125 40.386719 74.8125 C 40.328125 74.8125 40.210938 74.578125 40.152344 74.460938 C 40.09375 74.34375 39.917969 74.167969 39.917969 74.167969 C 39.917969 74.109375 39.859375 73.875 39.800781 73.757812 C 39.742188 73.640625 39.683594 73.40625 39.683594 73.347656 C 39.683594 73.347656 39.625 73.171875 39.625 73.113281 C 39.625 73.054688 39.566406 73.113281 39.566406 73.054688 C 39.507812 73.054688 39.214844 72.875 39.214844 72.875 C 39.214844 72.875 39.039062 72.640625 38.980469 72.582031 C 38.863281 72.464844 38.683594 72.289062 38.683594 72.289062 C 38.683594 72.289062 38.566406 72.054688 38.507812 71.9375 C 38.449219 71.820312 38.332031 71.585938 38.332031 71.585938 C 38.273438 71.585938 38.214844 71.292969 38.214844 71.175781 C 38.15625 71.058594 38.15625 70.996094 38.097656 70.820312 C 37.980469 70.175781 37.570312 67.945312 37.453125 66.710938 C 37.335938 65.773438 37.335938 65.007812 37.277344 64.1875 C 37.160156 63.421875 36.984375 62.894531 36.867188 62.015625 C 36.6875 60.664062 36.453125 58.492188 36.335938 56.789062 C 36.277344 55.261719 36.160156 53.734375 36.277344 52.328125 C 36.335938 51.035156 36.628906 49.566406 36.746094 48.746094 C 36.867188 48.335938 36.925781 48.15625 36.984375 47.746094 C 37.101562 47.042969 37.511719 44.929688 37.101562 44.753906 C 36.746094 44.515625 35.867188 45.457031 35.105469 45.925781 C 34.105469 46.515625 32.8125 47.21875 31.699219 47.863281 C 30.523438 48.628906 29.292969 49.449219 28.058594 50.152344 C 26.941406 50.800781 25.769531 51.386719 24.652344 51.972656 C 23.476562 52.5625 22.304688 53.207031 21.246094 53.851562 C 20.191406 54.441406 18.253906 55.789062 18.253906 55.789062 M 31.816406 91.722656 C 31.816406 91.78125 31.816406 91.78125 31.816406 91.78125 C 31.816406 91.78125 31.816406 91.722656 31.816406 91.722656 " clip-rule="nonzero"/></clipPath><clipPath id="b1d4131c4f"><path d="M 0.320312 0.570312 L 99.5625 0.570312 L 99.5625 86.207031 L 0.320312 86.207031 Z M 0.320312 0.570312 " clip-rule="nonzero"/></clipPath><clipPath id="07c831f89f"><path d="M 0.566406 43.265625 C 3.734375 39.035156 4.851562 38.332031 5.964844 37.570312 C 6.964844 36.863281 8.023438 36.21875 9.195312 35.515625 C 10.371094 34.867188 11.71875 34.164062 12.953125 33.515625 C 14.128906 32.871094 15.300781 32.34375 16.476562 31.636719 C 17.652344 30.992188 18.765625 30.230469 19.941406 29.464844 C 21.234375 28.703125 22.640625 27.820312 23.992188 27.058594 C 25.285156 26.355469 26.632812 25.707031 27.867188 24.945312 C 28.984375 24.300781 29.921875 23.652344 30.980469 22.949219 C 32.035156 22.246094 33.09375 21.480469 34.207031 20.71875 C 35.324219 20.011719 36.382812 19.074219 37.730469 18.546875 C 39.199219 17.957031 41.195312 17.605469 42.78125 17.546875 C 44.132812 17.488281 45.421875 17.664062 46.65625 17.957031 C 47.832031 18.25 49.003906 18.546875 49.945312 19.191406 C 50.941406 19.953125 51.648438 21.1875 52.46875 22.246094 C 53.289062 23.359375 54.054688 24.59375 54.757812 25.589844 C 55.347656 26.414062 55.992188 27 56.519531 27.761719 C 56.988281 28.527344 57.578125 30.230469 57.871094 30.171875 C 58.222656 30.113281 57.929688 27.527344 58.222656 26.121094 C 58.515625 24.652344 59.339844 22.65625 59.632812 21.539062 C 59.808594 20.894531 59.808594 20.367188 59.925781 20.011719 C 59.984375 19.835938 60.101562 19.660156 60.101562 19.542969 C 60.101562 19.484375 60.101562 19.484375 60.101562 19.367188 C 60.042969 19.308594 59.984375 18.957031 59.984375 18.957031 C 59.984375 18.957031 60.042969 18.664062 60.042969 18.546875 C 60.042969 18.429688 60.042969 18.132812 60.042969 18.132812 C 60.042969 18.132812 60.160156 17.839844 60.160156 17.722656 C 60.21875 17.546875 60.335938 17.3125 60.335938 17.3125 C 60.335938 17.3125 60.453125 17.078125 60.511719 16.902344 C 60.628906 16.785156 60.746094 16.550781 60.746094 16.550781 C 60.746094 16.550781 60.984375 16.371094 61.042969 16.253906 C 61.160156 16.136719 61.394531 15.960938 61.394531 15.960938 C 61.394531 15.960938 61.453125 15.960938 61.511719 15.84375 C 61.804688 15.492188 62.390625 13.203125 62.742188 11.910156 C 63.039062 10.734375 63.214844 9.621094 63.566406 8.445312 C 63.859375 7.273438 64.035156 5.921875 64.5625 4.746094 C 65.152344 3.515625 65.796875 1.8125 66.914062 1.164062 C 68.144531 0.519531 70.316406 0.695312 71.726562 1.164062 C 73.078125 1.578125 74.132812 2.808594 75.132812 3.75 C 76.070312 4.628906 76.777344 5.570312 77.539062 6.507812 C 78.304688 7.449219 79.125 8.269531 79.886719 9.269531 C 80.652344 10.207031 81.296875 11.207031 82.003906 12.261719 C 82.707031 13.378906 83.410156 14.433594 84.058594 15.667969 C 84.703125 16.960938 85.171875 18.605469 85.703125 19.894531 C 86.230469 21.128906 86.699219 22.304688 87.34375 23.359375 C 87.992188 24.476562 88.753906 25.414062 89.519531 26.355469 C 90.222656 27.351562 91.042969 28.351562 91.808594 29.289062 C 92.570312 30.230469 93.453125 31.636719 94.097656 31.992188 C 94.449219 32.167969 94.976562 32.109375 94.976562 32.167969 C 94.976562 32.109375 95.332031 32.109375 95.449219 32.109375 C 95.625 32.109375 95.917969 32.109375 95.976562 32.109375 C 95.976562 32.109375 96.269531 32.167969 96.386719 32.226562 C 96.5625 32.226562 96.855469 32.285156 96.855469 32.285156 C 96.914062 32.285156 97.152344 32.460938 97.328125 32.519531 C 97.445312 32.578125 97.738281 32.695312 97.738281 32.695312 C 97.738281 32.695312 97.972656 32.929688 98.089844 32.988281 C 98.207031 33.105469 98.441406 33.28125 98.5 33.28125 C 98.5 33.339844 98.675781 33.578125 98.734375 33.695312 C 98.855469 33.8125 99.03125 34.046875 99.03125 34.046875 C 99.03125 34.046875 99.148438 34.339844 99.207031 34.515625 C 99.265625 34.632812 99.441406 34.925781 99.441406 34.925781 C 99.441406 34.925781 99.441406 35.277344 99.5 35.394531 C 99.5 35.574219 99.558594 35.867188 99.558594 35.867188 C 99.558594 35.867188 99.558594 36.21875 99.5 36.335938 C 99.5 36.511719 99.5 36.804688 99.5 36.804688 C 99.5 36.863281 99.382812 37.15625 99.324219 37.273438 C 99.265625 37.453125 99.207031 37.746094 99.207031 37.746094 C 99.207031 37.746094 99.03125 37.980469 98.914062 38.15625 C 98.855469 38.273438 98.675781 38.507812 98.675781 38.507812 C 98.675781 38.566406 99.03125 38.976562 98.972656 39.332031 C 98.792969 40.09375 96.679688 42.324219 95.390625 42.792969 C 94.273438 43.207031 92.921875 42.617188 91.75 42.5 C 90.75 42.324219 89.871094 41.914062 88.929688 41.972656 C 87.933594 41.972656 87.050781 42.617188 85.996094 42.851562 C 84.878906 43.03125 83.644531 43.089844 82.355469 43.207031 C 80.945312 43.324219 79.242188 43.265625 77.773438 43.441406 C 76.484375 43.617188 75.367188 44.027344 74.074219 44.320312 C 72.667969 44.671875 70.789062 45.671875 69.671875 45.4375 C 68.96875 45.320312 68.675781 44.378906 68.027344 44.261719 C 67.382812 44.085938 66.148438 44.613281 65.738281 44.671875 C 65.5625 44.730469 65.445312 44.730469 65.445312 44.730469 C 65.445312 44.789062 67.382812 44.671875 68.085938 45.203125 C 69.027344 45.789062 69.613281 47.433594 70.257812 48.605469 C 70.90625 49.78125 71.433594 51.132812 71.960938 52.304688 C 72.492188 53.480469 73.136719 54.421875 73.3125 55.710938 C 73.546875 57.179688 73.429688 59.351562 72.902344 60.703125 C 72.433594 61.875 71.609375 62.699219 70.730469 63.519531 C 69.730469 64.460938 68.261719 65.046875 67.03125 65.8125 C 65.914062 66.457031 64.800781 67.101562 63.625 67.75 C 62.507812 68.394531 61.394531 68.980469 60.21875 69.628906 C 58.867188 70.332031 57.285156 71.210938 55.875 71.859375 C 54.523438 72.445312 53.113281 72.679688 51.882812 73.328125 C 50.707031 73.855469 49.769531 74.5 48.769531 75.265625 C 47.710938 76.085938 46.714844 77.203125 45.714844 78.082031 C 44.71875 78.964844 43.71875 79.785156 42.664062 80.605469 C 41.605469 81.429688 40.492188 82.542969 39.257812 83.132812 C 38.082031 83.777344 36.382812 84.246094 35.441406 84.363281 C 34.972656 84.421875 34.679688 84.1875 34.265625 84.304688 C 33.679688 84.480469 32.386719 85.480469 32.328125 85.539062 C 32.328125 85.539062 32.09375 85.65625 31.917969 85.714844 C 31.800781 85.832031 31.507812 85.949219 31.507812 85.949219 C 31.507812 85.949219 31.15625 86.007812 31.039062 86.066406 C 30.863281 86.125 30.566406 86.183594 30.507812 86.183594 C 30.507812 86.183594 30.214844 86.183594 30.039062 86.183594 C 29.863281 86.183594 29.570312 86.183594 29.570312 86.183594 C 29.570312 86.183594 29.21875 86.125 29.101562 86.066406 C 28.925781 86.007812 28.628906 85.949219 28.628906 85.949219 C 28.570312 85.949219 28.335938 85.773438 28.160156 85.714844 C 28.042969 85.65625 27.75 85.480469 27.75 85.480469 C 27.75 85.480469 27.515625 85.246094 27.398438 85.128906 C 27.28125 85.070312 27.046875 84.835938 27.046875 84.835938 C 26.988281 84.835938 26.808594 84.539062 26.75 84.421875 C 26.632812 84.304688 26.457031 84.011719 26.457031 84.011719 C 26.457031 84.011719 26.339844 83.601562 26.28125 83.542969 C 26.28125 83.542969 26.222656 83.542969 26.164062 83.484375 C 25.871094 83.308594 23.933594 80.902344 23.875 80.78125 C 23.875 80.78125 23.816406 80.78125 23.816406 80.78125 C 23.816406 80.78125 23.699219 80.488281 23.640625 80.3125 C 23.582031 80.195312 23.464844 79.84375 23.464844 79.84375 C 23.464844 79.84375 23.464844 79.492188 23.40625 79.375 C 23.40625 79.199219 23.347656 78.84375 23.347656 78.84375 C 23.347656 78.84375 23.40625 78.492188 23.40625 78.316406 C 23.40625 78.199219 23.464844 77.847656 23.464844 77.847656 C 23.464844 77.847656 23.640625 77.613281 23.582031 77.496094 C 23.523438 77.203125 22.992188 76.847656 22.582031 76.378906 C 21.9375 75.617188 20.878906 74.382812 20.058594 73.445312 C 19.234375 72.445312 18.589844 71.507812 17.710938 70.566406 C 16.769531 69.449219 15.597656 68.335938 14.65625 67.21875 C 13.777344 66.222656 12.953125 65.222656 12.132812 64.167969 C 11.308594 63.109375 10.546875 62.054688 9.664062 60.996094 C 8.726562 59.820312 7.609375 58.648438 6.730469 57.472656 C 5.90625 56.417969 5.144531 55.359375 4.441406 54.300781 C 3.792969 53.304688 3.207031 52.304688 2.621094 51.308594 C 1.972656 50.191406 0.976562 49.253906 0.625 47.960938 C 0.269531 46.609375 0.566406 43.265625 0.566406 43.265625 M 10.253906 44.789062 C 11.191406 49.605469 12.074219 50.605469 12.835938 51.601562 C 13.597656 52.660156 14.480469 53.65625 15.300781 54.714844 C 16.242188 55.828125 17.238281 57.179688 18.179688 58.296875 C 18.941406 59.292969 19.53125 60.117188 20.351562 61.113281 C 21.292969 62.171875 22.40625 63.285156 23.347656 64.34375 C 24.167969 65.28125 24.929688 66.105469 25.636719 66.984375 C 26.398438 67.925781 27.105469 68.863281 27.925781 69.804688 C 28.746094 70.800781 29.511719 72.445312 30.625 72.855469 C 31.742188 73.265625 33.738281 72.621094 34.621094 72.328125 C 35.089844 72.152344 35.675781 71.800781 35.675781 71.683594 C 35.675781 71.625 35.558594 71.328125 35.558594 71.328125 C 35.558594 71.328125 35.558594 71.09375 35.558594 70.976562 C 35.558594 70.800781 35.5 70.566406 35.5 70.566406 C 35.5 70.566406 35.558594 70.332031 35.558594 70.214844 C 35.617188 70.097656 35.675781 69.863281 35.675781 69.863281 C 35.675781 69.863281 35.734375 69.628906 35.792969 69.511719 C 35.851562 69.449219 35.910156 69.332031 35.910156 69.273438 C 35.910156 69.273438 35.851562 69.273438 35.792969 69.273438 C 35.792969 69.273438 35.558594 69.15625 35.441406 69.097656 C 35.324219 69.039062 35.089844 68.980469 35.089844 68.980469 C 35.089844 68.980469 34.914062 68.804688 34.796875 68.746094 C 34.679688 68.6875 34.503906 68.511719 34.441406 68.511719 C 34.441406 68.511719 34.324219 68.335938 34.207031 68.21875 C 34.148438 68.101562 33.972656 67.925781 33.972656 67.925781 C 33.972656 67.925781 33.855469 67.691406 33.796875 67.570312 C 33.738281 67.453125 33.621094 67.21875 33.621094 67.21875 C 33.621094 67.21875 33.5625 66.984375 33.503906 66.867188 C 33.503906 66.75 33.445312 66.457031 33.445312 66.457031 C 33.445312 66.457031 33.445312 66.222656 33.445312 66.105469 C 33.445312 65.988281 33.445312 65.691406 33.445312 65.691406 C 33.445312 65.691406 33.503906 65.457031 33.5625 65.339844 C 33.5625 65.222656 33.679688 64.929688 33.679688 64.929688 C 33.679688 64.929688 33.738281 64.8125 33.738281 64.8125 C 33.738281 64.8125 33.679688 64.8125 33.621094 64.8125 C 33.621094 64.753906 33.445312 64.636719 33.328125 64.578125 C 33.210938 64.519531 32.976562 64.402344 32.976562 64.402344 C 32.917969 64.402344 32.742188 64.226562 32.683594 64.109375 C 32.5625 63.992188 32.386719 63.8125 32.386719 63.8125 C 32.328125 63.8125 32.210938 63.578125 32.152344 63.460938 C 32.09375 63.34375 31.917969 63.167969 31.917969 63.167969 C 31.917969 63.109375 31.859375 62.875 31.800781 62.757812 C 31.742188 62.640625 31.683594 62.40625 31.683594 62.347656 C 31.683594 62.347656 31.625 62.171875 31.625 62.113281 C 31.625 62.054688 31.566406 62.113281 31.566406 62.054688 C 31.507812 62.054688 31.214844 61.875 31.214844 61.875 C 31.214844 61.875 31.039062 61.640625 30.980469 61.582031 C 30.863281 61.464844 30.683594 61.289062 30.683594 61.289062 C 30.683594 61.289062 30.566406 61.054688 30.507812 60.9375 C 30.449219 60.820312 30.332031 60.585938 30.332031 60.585938 C 30.273438 60.585938 30.214844 60.292969 30.214844 60.175781 C 30.15625 60.058594 30.15625 59.996094 30.097656 59.820312 C 29.980469 59.175781 29.570312 56.945312 29.453125 55.710938 C 29.335938 54.773438 29.335938 54.007812 29.277344 53.1875 C 29.160156 52.421875 28.984375 51.894531 28.867188 51.015625 C 28.6875 49.664062 28.453125 47.492188 28.335938 45.789062 C 28.277344 44.261719 28.160156 42.734375 28.277344 41.328125 C 28.335938 40.035156 28.628906 38.566406 28.746094 37.746094 C 28.867188 37.335938 28.925781 37.15625 28.984375 36.746094 C 29.101562 36.042969 29.511719 33.929688 29.101562 33.753906 C 28.746094 33.515625 27.867188 34.457031 27.105469 34.925781 C 26.105469 35.515625 24.8125 36.21875 23.699219 36.863281 C 22.523438 37.628906 21.292969 38.449219 20.058594 39.152344 C 18.941406 39.800781 17.769531 40.386719 16.652344 40.972656 C 15.476562 41.5625 14.304688 42.207031 13.246094 42.851562 C 12.191406 43.441406 10.253906 44.789062 10.253906 44.789062 M 23.816406 80.722656 C 23.816406 80.78125 23.816406 80.78125 23.816406 80.78125 C 23.816406 80.78125 23.816406 80.722656 23.816406 80.722656 " clip-rule="nonzero"/></clipPath><clipPath id="b030cf4357"><rect x="0" width="100" y="0" height="87"/></clipPath><clipPath id="8f8c9951de"><path d="M 33.5625 58.359375 L 52.320312 58.359375 L 52.320312 87.316406 L 33.5625 87.316406 Z M 33.5625 58.359375 " clip-rule="nonzero"/></clipPath><clipPath id="e5e780c6d5"><path d="M 46.496094 76.222656 C 41.796875 60.664062 41.972656 60.136719 42.441406 59.605469 C 42.972656 59.019531 44.261719 58.492188 44.96875 58.433594 C 45.496094 58.433594 45.964844 58.609375 46.378906 58.902344 C 46.847656 59.253906 47.316406 59.664062 47.667969 60.546875 C 48.609375 62.835938 49.253906 69.648438 49.488281 73.582031 C 49.722656 76.753906 50.429688 79.980469 49.429688 82.328125 C 48.550781 84.445312 46.199219 87.085938 44.441406 87.261719 C 42.679688 87.496094 40.386719 85.5 38.921875 84.089844 C 37.511719 82.742188 36.335938 80.921875 35.808594 79.21875 C 35.339844 77.574219 34.988281 74.992188 35.867188 73.933594 C 36.808594 72.816406 39.976562 72.230469 41.679688 72.757812 C 43.441406 73.347656 45.027344 75.988281 46.199219 77.457031 C 47.082031 78.570312 47.84375 79.6875 48.257812 80.570312 C 48.609375 81.214844 48.84375 81.625 48.84375 82.210938 C 48.902344 82.976562 48.667969 84.089844 48.199219 84.738281 C 47.726562 85.382812 46.847656 85.96875 46.082031 86.144531 C 45.320312 86.324219 44.558594 86.324219 43.558594 85.792969 C 41.210938 84.5625 35.222656 77.515625 34.105469 75.460938 C 33.695312 74.695312 33.636719 74.34375 33.636719 73.757812 C 33.695312 72.996094 34.046875 71.878906 34.574219 71.292969 C 35.105469 70.703125 36.042969 70.175781 36.867188 70.058594 C 37.6875 70 38.449219 70.058594 39.390625 70.703125 C 41.5625 72.230469 46.730469 80.097656 47.375 82.566406 C 47.667969 83.5625 47.492188 84.207031 47.199219 84.914062 C 46.90625 85.558594 46.261719 86.265625 45.613281 86.617188 C 44.96875 86.96875 44.085938 87.203125 43.324219 87.027344 C 42.441406 86.792969 41.09375 85.792969 40.5625 85.03125 C 40.210938 84.328125 40.152344 83.445312 40.269531 82.683594 C 40.445312 81.976562 40.859375 81.15625 41.445312 80.6875 C 42.207031 80.097656 43.851562 79.746094 44.792969 79.921875 C 45.554688 80.039062 46.261719 80.570312 46.730469 81.15625 C 47.199219 81.742188 47.550781 82.566406 47.492188 83.386719 C 47.433594 84.328125 46.671875 85.792969 45.964844 86.382812 C 45.378906 86.910156 44.441406 87.085938 43.734375 87.027344 C 42.972656 87.027344 42.382812 86.910156 41.5625 86.207031 C 39.566406 84.621094 34.398438 77.164062 33.753906 74.636719 C 33.519531 73.523438 33.753906 72.699219 34.046875 72.054688 C 34.339844 71.46875 34.75 71.058594 35.222656 70.703125 C 35.691406 70.410156 36.21875 70.117188 36.867188 70.058594 C 37.628906 70.058594 38.390625 70.117188 39.390625 70.703125 C 41.621094 71.996094 47.082031 78.277344 48.257812 80.570312 C 48.785156 81.625 48.902344 82.386719 48.84375 83.09375 C 48.785156 83.679688 48.609375 84.265625 48.199219 84.738281 C 47.726562 85.265625 46.847656 85.96875 46.082031 86.144531 C 45.320312 86.324219 44.203125 86.085938 43.558594 85.792969 C 42.972656 85.558594 42.738281 85.207031 42.265625 84.621094 C 41.269531 83.386719 38.273438 79.277344 38.804688 78.277344 C 39.15625 77.515625 42.03125 77.164062 42.738281 77.75 C 43.441406 78.394531 42.503906 82.269531 42.679688 82.269531 C 42.796875 82.328125 43.441406 80.449219 43.558594 78.808594 C 43.851562 75.167969 41.152344 63.777344 41.855469 60.898438 C 42.03125 59.902344 42.441406 59.488281 42.914062 59.078125 C 43.441406 58.667969 44.320312 58.433594 44.96875 58.433594 C 45.671875 58.492188 46.496094 58.902344 46.964844 59.3125 C 47.316406 59.664062 47.375 59.902344 47.667969 60.546875 C 48.667969 62.71875 52.191406 72.40625 52.25 75.050781 C 52.25 75.988281 52.015625 76.515625 51.660156 77.046875 C 51.25 77.574219 50.546875 78.042969 49.898438 78.160156 C 49.253906 78.335938 48.375 78.160156 47.84375 77.867188 C 47.257812 77.515625 46.496094 76.222656 46.496094 76.222656 " clip-rule="nonzero"/></clipPath><clipPath id="09bcf20b0f"><path d="M 0.5625 0.375 L 19.292969 0.375 L 19.292969 29.316406 L 0.5625 29.316406 Z M 0.5625 0.375 " clip-rule="nonzero"/></clipPath><clipPath id="2b310ce2b8"><path d="M 13.496094 18.222656 C 8.796875 2.664062 8.972656 2.136719 9.441406 1.605469 C 9.972656 1.019531 11.261719 0.492188 11.96875 0.433594 C 12.496094 0.433594 12.964844 0.609375 13.378906 0.902344 C 13.847656 1.253906 14.316406 1.664062 14.667969 2.546875 C 15.609375 4.835938 16.253906 11.648438 16.488281 15.582031 C 16.722656 18.753906 17.429688 21.980469 16.429688 24.328125 C 15.550781 26.445312 13.199219 29.085938 11.441406 29.261719 C 9.679688 29.496094 7.386719 27.5 5.921875 26.089844 C 4.511719 24.742188 3.335938 22.921875 2.808594 21.21875 C 2.339844 19.574219 1.988281 16.992188 2.867188 15.933594 C 3.808594 14.816406 6.976562 14.230469 8.679688 14.757812 C 10.441406 15.347656 12.027344 17.988281 13.199219 19.457031 C 14.082031 20.570312 14.84375 21.6875 15.257812 22.570312 C 15.609375 23.214844 15.84375 23.625 15.84375 24.210938 C 15.902344 24.976562 15.667969 26.089844 15.199219 26.738281 C 14.726562 27.382812 13.847656 27.96875 13.082031 28.144531 C 12.320312 28.324219 11.558594 28.324219 10.558594 27.792969 C 8.210938 26.5625 2.222656 19.515625 1.105469 17.460938 C 0.695312 16.695312 0.636719 16.34375 0.636719 15.757812 C 0.695312 14.996094 1.046875 13.878906 1.574219 13.292969 C 2.105469 12.703125 3.042969 12.175781 3.867188 12.058594 C 4.6875 12 5.449219 12.058594 6.390625 12.703125 C 8.5625 14.230469 13.730469 22.097656 14.375 24.566406 C 14.667969 25.5625 14.492188 26.207031 14.199219 26.914062 C 13.90625 27.558594 13.261719 28.265625 12.613281 28.617188 C 11.96875 28.96875 11.085938 29.203125 10.324219 29.027344 C 9.441406 28.792969 8.09375 27.792969 7.5625 27.03125 C 7.210938 26.328125 7.152344 25.445312 7.269531 24.683594 C 7.445312 23.976562 7.859375 23.15625 8.445312 22.6875 C 9.207031 22.097656 10.851562 21.746094 11.792969 21.921875 C 12.554688 22.039062 13.261719 22.570312 13.730469 23.15625 C 14.199219 23.742188 14.550781 24.566406 14.492188 25.386719 C 14.433594 26.328125 13.671875 27.792969 12.964844 28.382812 C 12.378906 28.910156 11.441406 29.085938 10.734375 29.027344 C 9.972656 29.027344 9.382812 28.910156 8.5625 28.207031 C 6.566406 26.621094 1.398438 19.164062 0.753906 16.636719 C 0.519531 15.523438 0.753906 14.699219 1.046875 14.054688 C 1.339844 13.46875 1.75 13.058594 2.222656 12.703125 C 2.691406 12.410156 3.21875 12.117188 3.867188 12.058594 C 4.628906 12.058594 5.390625 12.117188 6.390625 12.703125 C 8.621094 13.996094 14.082031 20.277344 15.257812 22.570312 C 15.785156 23.625 15.902344 24.386719 15.84375 25.09375 C 15.785156 25.679688 15.609375 26.265625 15.199219 26.738281 C 14.726562 27.265625 13.847656 27.96875 13.082031 28.144531 C 12.320312 28.324219 11.203125 28.085938 10.558594 27.792969 C 9.972656 27.558594 9.738281 27.207031 9.265625 26.621094 C 8.269531 25.386719 5.273438 21.277344 5.804688 20.277344 C 6.15625 19.515625 9.03125 19.164062 9.738281 19.75 C 10.441406 20.394531 9.503906 24.269531 9.679688 24.269531 C 9.796875 24.328125 10.441406 22.449219 10.558594 20.808594 C 10.851562 17.167969 8.152344 5.777344 8.855469 2.898438 C 9.03125 1.902344 9.441406 1.488281 9.914062 1.078125 C 10.441406 0.667969 11.320312 0.433594 11.96875 0.433594 C 12.671875 0.492188 13.496094 0.902344 13.964844 1.3125 C 14.316406 1.664062 14.375 1.902344 14.667969 2.546875 C 15.667969 4.71875 19.191406 14.40625 19.25 17.050781 C 19.25 17.988281 19.015625 18.515625 18.660156 19.046875 C 18.25 19.574219 17.546875 20.042969 16.898438 20.160156 C 16.253906 20.335938 15.375 20.160156 14.84375 19.867188 C 14.257812 19.515625 13.496094 18.222656 13.496094 18.222656 " clip-rule="nonzero"/></clipPath><clipPath id="e1e5a3cc5a"><rect x="0" width="20" y="0" height="30"/></clipPath><clipPath id="ba7830225f"><path d="M 14.269531 41.355469 L 50.769531 41.355469 L 50.769531 86.824219 L 14.269531 86.824219 Z M 14.269531 41.355469 " clip-rule="nonzero"/></clipPath><clipPath id="f68323d896"><path d="M 14.378906 55.730469 C 17.136719 50.859375 18.429688 50.035156 19.542969 49.390625 C 20.660156 48.746094 21.835938 48.394531 23.125 47.921875 C 24.535156 47.394531 26.179688 47.160156 27.648438 46.574219 C 29.234375 45.984375 32.167969 44.515625 32.226562 44.457031 C 32.226562 44.457031 32.285156 44.164062 32.34375 44.046875 C 32.34375 43.929688 32.460938 43.636719 32.460938 43.636719 C 32.460938 43.636719 32.636719 43.402344 32.695312 43.226562 C 32.753906 43.109375 32.929688 42.875 32.929688 42.875 C 32.929688 42.875 33.109375 42.636719 33.226562 42.578125 C 33.34375 42.460938 33.519531 42.226562 33.519531 42.226562 C 33.519531 42.226562 33.753906 42.109375 33.929688 41.992188 C 34.046875 41.933594 34.28125 41.757812 34.28125 41.757812 C 34.28125 41.757812 34.574219 41.699219 34.691406 41.640625 C 34.867188 41.582031 35.105469 41.523438 35.105469 41.523438 C 35.105469 41.523438 35.398438 41.464844 35.574219 41.464844 C 35.691406 41.464844 35.984375 41.464844 35.984375 41.464844 C 35.984375 41.464844 36.277344 41.464844 36.453125 41.523438 C 36.570312 41.523438 36.867188 41.582031 36.867188 41.582031 C 36.867188 41.582031 36.925781 41.640625 36.984375 41.640625 C 37.042969 41.640625 37.101562 41.582031 37.21875 41.582031 C 37.335938 41.523438 37.628906 41.464844 37.628906 41.464844 C 37.628906 41.464844 37.921875 41.464844 38.039062 41.464844 C 38.214844 41.464844 38.449219 41.464844 38.449219 41.464844 C 38.507812 41.464844 38.746094 41.523438 38.863281 41.582031 C 39.039062 41.582031 39.273438 41.640625 39.273438 41.699219 C 39.273438 41.699219 39.273438 41.699219 39.332031 41.699219 C 39.332031 41.699219 39.566406 41.816406 39.683594 41.875 C 39.800781 41.933594 40.035156 42.050781 40.035156 42.050781 C 40.035156 42.050781 40.269531 42.226562 40.386719 42.34375 C 40.503906 42.460938 40.683594 42.636719 40.683594 42.636719 C 40.683594 42.636719 40.859375 42.875 40.917969 42.992188 C 41.035156 43.109375 41.152344 43.34375 41.152344 43.34375 C 41.210938 43.34375 41.269531 43.578125 41.328125 43.695312 C 41.386719 43.871094 41.503906 44.105469 41.503906 44.105469 C 41.503906 44.105469 41.503906 44.398438 41.5625 44.515625 C 41.5625 44.695312 41.5625 44.929688 41.5625 44.988281 C 41.5625 44.988281 41.5625 45.222656 41.5625 45.398438 C 41.503906 45.515625 41.503906 45.808594 41.503906 45.808594 C 41.503906 45.808594 41.386719 46.101562 41.328125 46.335938 C 41.152344 47.042969 40.742188 48.6875 40.5625 49.859375 C 40.386719 51.152344 40.328125 53.207031 40.269531 53.851562 C 40.269531 54.148438 40.269531 54.265625 40.269531 54.382812 C 40.328125 54.382812 40.386719 54.441406 40.386719 54.441406 C 40.386719 54.441406 40.503906 54.675781 40.625 54.792969 C 40.683594 54.910156 40.859375 55.144531 40.859375 55.144531 C 40.859375 55.144531 40.976562 55.378906 41.035156 55.496094 C 41.09375 55.671875 41.152344 55.910156 41.152344 55.910156 C 41.152344 55.910156 41.210938 56.203125 41.210938 56.320312 C 41.269531 56.496094 41.269531 56.730469 41.269531 56.789062 C 41.269531 56.789062 41.269531 57.023438 41.210938 57.199219 C 41.210938 57.316406 41.210938 57.609375 41.210938 57.609375 C 41.210938 57.609375 41.152344 58.140625 41.210938 58.257812 C 41.269531 58.316406 41.386719 58.316406 41.503906 58.375 C 41.621094 58.375 41.796875 58.433594 41.855469 58.492188 C 41.972656 58.492188 41.972656 58.550781 42.03125 58.609375 C 42.089844 58.609375 42.148438 58.667969 42.207031 58.667969 C 42.324219 58.726562 42.441406 58.902344 42.503906 58.960938 C 42.621094 59.078125 42.796875 59.136719 42.855469 59.195312 C 42.914062 59.253906 42.914062 59.3125 42.972656 59.371094 C 43.03125 59.429688 43.089844 59.429688 43.148438 59.488281 C 43.207031 59.605469 43.265625 59.785156 43.324219 59.84375 C 43.382812 59.960938 43.5 60.078125 43.558594 60.195312 C 43.558594 60.253906 43.558594 60.3125 43.617188 60.429688 C 43.617188 60.488281 43.675781 60.488281 43.675781 60.605469 C 43.734375 60.664062 43.734375 60.839844 43.792969 60.957031 C 43.792969 61.132812 43.851562 61.25 43.910156 61.367188 C 43.910156 61.425781 43.851562 61.484375 43.851562 61.605469 C 43.910156 61.664062 43.910156 61.722656 43.910156 61.78125 C 43.910156 61.898438 43.851562 62.074219 43.851562 62.191406 C 43.851562 62.308594 43.851562 62.484375 43.851562 62.601562 C 43.851562 62.660156 43.792969 62.71875 43.792969 62.777344 C 43.734375 62.835938 43.734375 62.894531 43.734375 62.953125 C 43.675781 63.070312 43.617188 63.246094 43.558594 63.363281 C 43.5 63.484375 43.5 63.542969 43.382812 63.71875 C 43.265625 64.011719 42.5625 64.832031 42.679688 64.949219 C 42.679688 65.007812 42.855469 64.949219 42.972656 64.949219 C 43.089844 64.949219 43.441406 64.949219 43.441406 64.949219 C 43.441406 64.949219 43.734375 65.007812 43.851562 65.007812 C 44.027344 65.066406 44.320312 65.125 44.320312 65.125 C 44.320312 65.125 44.558594 65.242188 44.734375 65.300781 C 44.851562 65.363281 45.085938 65.480469 45.144531 65.480469 C 45.144531 65.539062 45.320312 65.714844 45.4375 65.773438 C 45.554688 65.890625 45.789062 66.066406 45.789062 66.066406 C 45.789062 66.066406 45.964844 66.300781 46.082031 66.417969 C 46.199219 66.535156 46.261719 66.652344 46.378906 66.769531 C 46.554688 67.121094 47.023438 67.59375 47.316406 68.238281 C 47.84375 69.355469 48.433594 71.410156 48.902344 72.875 C 49.3125 74.109375 49.664062 75.167969 49.957031 76.339844 C 50.195312 77.574219 50.78125 78.75 50.605469 80.097656 C 50.371094 81.800781 49.3125 84.679688 48.019531 85.675781 C 46.964844 86.441406 44.617188 86.5 43.96875 86.324219 C 43.734375 86.265625 43.675781 86.027344 43.5 86.027344 C 43.324219 86.027344 43.207031 86.324219 42.972656 86.382812 C 42.796875 86.5 42.5625 86.617188 42.324219 86.675781 C 42.089844 86.734375 41.855469 86.734375 41.621094 86.734375 C 41.386719 86.734375 41.152344 86.734375 40.917969 86.675781 C 40.683594 86.617188 40.445312 86.5 40.269531 86.441406 C 40.035156 86.324219 39.683594 86.027344 39.683594 86.027344 C 39.683594 86.027344 36.808594 83.5625 35.574219 82.507812 C 34.632812 81.625 33.753906 80.921875 32.988281 79.980469 C 32.109375 78.984375 31.640625 77.046875 30.699219 76.632812 C 29.9375 76.339844 28.878906 77.457031 28.117188 77.164062 C 27.117188 76.8125 26.355469 75.167969 25.476562 74.109375 C 24.59375 72.996094 23.832031 71.996094 22.890625 70.820312 C 21.777344 69.355469 20.601562 67.652344 19.425781 66.125 C 18.195312 64.539062 16.433594 63.304688 15.609375 61.605469 C 14.730469 59.84375 14.378906 55.730469 14.378906 55.730469 " clip-rule="nonzero"/></clipPath><clipPath id="231752b33e"><path d="M 0.269531 0.460938 L 36.769531 0.460938 L 36.769531 45.824219 L 0.269531 45.824219 Z M 0.269531 0.460938 " clip-rule="nonzero"/></clipPath><clipPath id="b03b021140"><path d="M 0.378906 14.730469 C 3.136719 9.859375 4.429688 9.035156 5.542969 8.390625 C 6.660156 7.746094 7.835938 7.394531 9.125 6.921875 C 10.535156 6.394531 12.179688 6.160156 13.648438 5.574219 C 15.234375 4.984375 18.167969 3.515625 18.226562 3.457031 C 18.226562 3.457031 18.285156 3.164062 18.34375 3.046875 C 18.34375 2.929688 18.460938 2.636719 18.460938 2.636719 C 18.460938 2.636719 18.636719 2.402344 18.695312 2.226562 C 18.753906 2.109375 18.929688 1.875 18.929688 1.875 C 18.929688 1.875 19.109375 1.636719 19.226562 1.578125 C 19.34375 1.460938 19.519531 1.226562 19.519531 1.226562 C 19.519531 1.226562 19.753906 1.109375 19.929688 0.992188 C 20.046875 0.933594 20.28125 0.757812 20.28125 0.757812 C 20.28125 0.757812 20.574219 0.699219 20.691406 0.640625 C 20.867188 0.582031 21.105469 0.523438 21.105469 0.523438 C 21.105469 0.523438 21.398438 0.464844 21.574219 0.464844 C 21.691406 0.464844 21.984375 0.464844 21.984375 0.464844 C 21.984375 0.464844 22.277344 0.464844 22.453125 0.523438 C 22.570312 0.523438 22.867188 0.582031 22.867188 0.582031 C 22.867188 0.582031 22.925781 0.640625 22.984375 0.640625 C 23.042969 0.640625 23.101562 0.582031 23.21875 0.582031 C 23.335938 0.523438 23.628906 0.464844 23.628906 0.464844 C 23.628906 0.464844 23.921875 0.464844 24.039062 0.464844 C 24.214844 0.464844 24.449219 0.464844 24.449219 0.464844 C 24.507812 0.464844 24.746094 0.523438 24.863281 0.582031 C 25.039062 0.582031 25.273438 0.640625 25.273438 0.699219 C 25.273438 0.699219 25.273438 0.699219 25.332031 0.699219 C 25.332031 0.699219 25.566406 0.816406 25.683594 0.875 C 25.800781 0.933594 26.035156 1.050781 26.035156 1.050781 C 26.035156 1.050781 26.269531 1.226562 26.386719 1.34375 C 26.503906 1.460938 26.683594 1.636719 26.683594 1.636719 C 26.683594 1.636719 26.859375 1.875 26.917969 1.992188 C 27.035156 2.109375 27.152344 2.34375 27.152344 2.34375 C 27.210938 2.34375 27.269531 2.578125 27.328125 2.695312 C 27.386719 2.871094 27.503906 3.105469 27.503906 3.105469 C 27.503906 3.105469 27.503906 3.398438 27.5625 3.515625 C 27.5625 3.695312 27.5625 3.929688 27.5625 3.988281 C 27.5625 3.988281 27.5625 4.222656 27.5625 4.398438 C 27.503906 4.515625 27.503906 4.808594 27.503906 4.808594 C 27.503906 4.808594 27.386719 5.101562 27.328125 5.335938 C 27.152344 6.042969 26.742188 7.6875 26.5625 8.859375 C 26.386719 10.152344 26.328125 12.207031 26.269531 12.851562 C 26.269531 13.148438 26.269531 13.265625 26.269531 13.382812 C 26.328125 13.382812 26.386719 13.441406 26.386719 13.441406 C 26.386719 13.441406 26.503906 13.675781 26.625 13.792969 C 26.683594 13.910156 26.859375 14.144531 26.859375 14.144531 C 26.859375 14.144531 26.976562 14.378906 27.035156 14.496094 C 27.09375 14.671875 27.152344 14.910156 27.152344 14.910156 C 27.152344 14.910156 27.210938 15.203125 27.210938 15.320312 C 27.269531 15.496094 27.269531 15.730469 27.269531 15.789062 C 27.269531 15.789062 27.269531 16.023438 27.210938 16.199219 C 27.210938 16.316406 27.210938 16.609375 27.210938 16.609375 C 27.210938 16.609375 27.152344 17.140625 27.210938 17.257812 C 27.269531 17.316406 27.386719 17.316406 27.503906 17.375 C 27.621094 17.375 27.796875 17.433594 27.855469 17.492188 C 27.972656 17.492188 27.972656 17.550781 28.03125 17.609375 C 28.089844 17.609375 28.148438 17.667969 28.207031 17.667969 C 28.324219 17.726562 28.441406 17.902344 28.503906 17.960938 C 28.621094 18.078125 28.796875 18.136719 28.855469 18.195312 C 28.914062 18.253906 28.914062 18.3125 28.972656 18.371094 C 29.03125 18.429688 29.089844 18.429688 29.148438 18.488281 C 29.207031 18.605469 29.265625 18.785156 29.324219 18.84375 C 29.382812 18.960938 29.5 19.078125 29.558594 19.195312 C 29.558594 19.253906 29.558594 19.3125 29.617188 19.429688 C 29.617188 19.488281 29.675781 19.488281 29.675781 19.605469 C 29.734375 19.664062 29.734375 19.839844 29.792969 19.957031 C 29.792969 20.132812 29.851562 20.25 29.910156 20.367188 C 29.910156 20.425781 29.851562 20.484375 29.851562 20.605469 C 29.910156 20.664062 29.910156 20.722656 29.910156 20.78125 C 29.910156 20.898438 29.851562 21.074219 29.851562 21.191406 C 29.851562 21.308594 29.851562 21.484375 29.851562 21.601562 C 29.851562 21.660156 29.792969 21.71875 29.792969 21.777344 C 29.734375 21.835938 29.734375 21.894531 29.734375 21.953125 C 29.675781 22.070312 29.617188 22.246094 29.558594 22.363281 C 29.5 22.484375 29.5 22.542969 29.382812 22.71875 C 29.265625 23.011719 28.5625 23.832031 28.679688 23.949219 C 28.679688 24.007812 28.855469 23.949219 28.972656 23.949219 C 29.089844 23.949219 29.441406 23.949219 29.441406 23.949219 C 29.441406 23.949219 29.734375 24.007812 29.851562 24.007812 C 30.027344 24.066406 30.320312 24.125 30.320312 24.125 C 30.320312 24.125 30.558594 24.242188 30.734375 24.300781 C 30.851562 24.363281 31.085938 24.480469 31.144531 24.480469 C 31.144531 24.539062 31.320312 24.714844 31.4375 24.773438 C 31.554688 24.890625 31.789062 25.066406 31.789062 25.066406 C 31.789062 25.066406 31.964844 25.300781 32.082031 25.417969 C 32.199219 25.535156 32.261719 25.652344 32.378906 25.769531 C 32.554688 26.121094 33.023438 26.59375 33.316406 27.238281 C 33.84375 28.355469 34.433594 30.410156 34.902344 31.875 C 35.3125 33.109375 35.664062 34.167969 35.957031 35.339844 C 36.195312 36.574219 36.78125 37.75 36.605469 39.097656 C 36.371094 40.800781 35.3125 43.679688 34.019531 44.675781 C 32.964844 45.441406 30.617188 45.5 29.96875 45.324219 C 29.734375 45.265625 29.675781 45.027344 29.5 45.027344 C 29.324219 45.027344 29.207031 45.324219 28.972656 45.382812 C 28.796875 45.5 28.5625 45.617188 28.324219 45.675781 C 28.089844 45.734375 27.855469 45.734375 27.621094 45.734375 C 27.386719 45.734375 27.152344 45.734375 26.917969 45.675781 C 26.683594 45.617188 26.445312 45.5 26.269531 45.441406 C 26.035156 45.324219 25.683594 45.027344 25.683594 45.027344 C 25.683594 45.027344 22.808594 42.5625 21.574219 41.507812 C 20.632812 40.625 19.753906 39.921875 18.988281 38.980469 C 18.109375 37.984375 17.640625 36.046875 16.699219 35.632812 C 15.9375 35.339844 14.878906 36.457031 14.117188 36.164062 C 13.117188 35.8125 12.355469 34.167969 11.476562 33.109375 C 10.59375 31.996094 9.832031 30.996094 8.890625 29.820312 C 7.777344 28.355469 6.601562 26.652344 5.425781 25.125 C 4.195312 23.539062 2.433594 22.304688 1.609375 20.605469 C 0.730469 18.84375 0.378906 14.730469 0.378906 14.730469 " clip-rule="nonzero"/></clipPath><clipPath id="bc5d1eaf65"><rect x="0" width="37" y="0" height="46"/></clipPath><clipPath id="bf9ede3909"><path d="M 61.503906 5.558594 L 90.09375 5.558594 L 90.09375 40.09375 L 61.503906 40.09375 Z M 61.503906 5.558594 " clip-rule="nonzero"/></clipPath><clipPath id="b58d71e19f"><path d="M 61.527344 36.648438 C 65.402344 16.21875 65.871094 15.394531 66.398438 14.101562 C 66.925781 12.871094 67.457031 11.636719 68.160156 10.523438 C 68.863281 9.523438 69.570312 8.523438 70.507812 7.703125 C 71.507812 6.882812 72.679688 5.941406 73.914062 5.707031 C 75.324219 5.414062 77.085938 5.648438 78.554688 6.410156 C 80.375 7.410156 81.957031 9.757812 83.660156 11.988281 C 85.714844 14.632812 89.179688 19.152344 89.828125 21.382812 C 90.121094 22.441406 90.0625 23.144531 89.765625 23.910156 C 89.53125 24.671875 88.886719 25.492188 88.242188 25.90625 C 87.59375 26.375 86.597656 26.667969 85.773438 26.609375 C 85.011719 26.550781 84.011719 26.257812 83.425781 25.609375 C 82.722656 24.90625 81.957031 23.261719 82.074219 22.148438 C 82.191406 21.089844 83.308594 19.621094 84.191406 19.09375 C 84.953125 18.625 85.949219 18.566406 86.714844 18.683594 C 87.535156 18.859375 88.417969 19.269531 88.945312 19.914062 C 89.589844 20.738281 90.179688 22.441406 89.886719 23.496094 C 89.648438 24.554688 88.476562 25.90625 87.476562 26.316406 C 86.480469 26.726562 85.011719 26.609375 83.777344 25.90625 C 81.605469 24.613281 78.316406 18.917969 77.144531 16.453125 C 76.4375 14.984375 76.675781 12.8125 76.085938 12.753906 C 75.265625 12.636719 73.445312 16.097656 72.269531 18.800781 C 70.214844 23.496094 68.628906 36.414062 66.75 38.882812 C 66.164062 39.644531 65.578125 39.820312 64.988281 39.996094 C 64.519531 40.113281 64.050781 40.113281 63.582031 39.9375 C 63.050781 39.703125 62.289062 39.234375 61.9375 38.644531 C 61.585938 38.117188 61.527344 36.648438 61.527344 36.648438 " clip-rule="nonzero"/></clipPath><clipPath id="d27797239e"><path d="M 0.503906 0.558594 L 29.09375 0.558594 L 29.09375 35.09375 L 0.503906 35.09375 Z M 0.503906 0.558594 " clip-rule="nonzero"/></clipPath><clipPath id="93942f2675"><path d="M 0.527344 31.648438 C 4.402344 11.21875 4.871094 10.394531 5.398438 9.101562 C 5.925781 7.871094 6.457031 6.636719 7.160156 5.523438 C 7.863281 4.523438 8.570312 3.523438 9.507812 2.703125 C 10.507812 1.882812 11.679688 0.941406 12.914062 0.707031 C 14.324219 0.414062 16.085938 0.648438 17.554688 1.410156 C 19.375 2.410156 20.957031 4.757812 22.660156 6.988281 C 24.714844 9.632812 28.179688 14.152344 28.828125 16.382812 C 29.121094 17.441406 29.0625 18.144531 28.765625 18.910156 C 28.53125 19.671875 27.886719 20.492188 27.242188 20.90625 C 26.59375 21.375 25.597656 21.667969 24.773438 21.609375 C 24.011719 21.550781 23.011719 21.257812 22.425781 20.609375 C 21.722656 19.90625 20.957031 18.261719 21.074219 17.148438 C 21.191406 16.089844 22.308594 14.621094 23.191406 14.09375 C 23.953125 13.625 24.949219 13.566406 25.714844 13.683594 C 26.535156 13.859375 27.417969 14.269531 27.945312 14.914062 C 28.589844 15.738281 29.179688 17.441406 28.886719 18.496094 C 28.648438 19.554688 27.476562 20.90625 26.476562 21.316406 C 25.480469 21.726562 24.011719 21.609375 22.777344 20.90625 C 20.605469 19.613281 17.316406 13.917969 16.144531 11.453125 C 15.4375 9.984375 15.675781 7.8125 15.085938 7.753906 C 14.265625 7.636719 12.445312 11.097656 11.269531 13.800781 C 9.214844 18.496094 7.628906 31.414062 5.75 33.882812 C 5.164062 34.644531 4.578125 34.820312 3.988281 34.996094 C 3.519531 35.113281 3.050781 35.113281 2.582031 34.9375 C 2.050781 34.703125 1.289062 34.234375 0.9375 33.644531 C 0.585938 33.117188 0.527344 31.648438 0.527344 31.648438 " clip-rule="nonzero"/></clipPath><clipPath id="595f46e6d7"><rect x="0" width="30" y="0" height="36"/></clipPath><clipPath id="54b08cd7e5"><path d="M 2.425781 23.257812 L 87.820312 23.257812 L 87.820312 101.886719 L 2.425781 101.886719 Z M 2.425781 23.257812 " clip-rule="nonzero"/></clipPath><clipPath id="c9b4e734da"><path d="M 5.453125 50.152344 C 30.933594 32.832031 37.980469 28.546875 42.738281 26.316406 C 45.789062 24.964844 48.257812 24.085938 50.429688 23.671875 C 51.957031 23.4375 53.011719 23.4375 54.363281 23.671875 C 55.773438 23.910156 57.414062 24.4375 58.707031 25.199219 C 59.941406 25.90625 60.878906 26.726562 62.054688 27.902344 C 63.699219 29.488281 65.226562 31.070312 67.457031 34.066406 C 72.09375 40.40625 84.25 60.253906 86.65625 65.65625 C 87.417969 67.359375 87.652344 68.003906 87.710938 69.238281 C 87.828125 70.585938 87.710938 72.230469 87.242188 73.464844 C 86.773438 74.636719 85.890625 75.519531 85.070312 76.398438 C 84.25 77.28125 83.777344 77.691406 82.191406 78.808594 C 76.96875 82.449219 52.191406 96.65625 46.082031 99.59375 C 44.085938 100.53125 43.382812 100.882812 42.03125 101.175781 C 40.625 101.472656 39.039062 101.707031 37.628906 101.472656 C 36.160156 101.234375 34.867188 100.707031 33.402344 99.769531 C 31.347656 98.476562 29.234375 96.480469 26.765625 93.71875 C 22.832031 89.140625 17.253906 79.277344 13.203125 73.875 C 10.265625 69.941406 6.804688 66.652344 5.101562 64.070312 C 4.101562 62.542969 3.574219 61.484375 3.105469 60.195312 C 2.691406 58.960938 2.457031 57.847656 2.515625 56.496094 C 2.574219 54.851562 2.691406 52.796875 3.75 51.152344 C 5.101562 49.039062 8.386719 47.277344 11.089844 45.515625 C 14.082031 43.519531 18.722656 40.878906 20.953125 40.054688 C 21.953125 39.644531 22.539062 39.410156 23.300781 39.46875 C 24.066406 39.527344 24.945312 39.9375 25.535156 40.464844 C 26.121094 40.996094 26.648438 41.757812 26.707031 42.578125 C 26.824219 43.578125 26.414062 45.28125 25.652344 45.984375 C 24.886719 46.75 23.183594 47.160156 22.1875 47.042969 C 21.363281 46.925781 20.601562 46.457031 20.074219 45.808594 C 19.484375 44.988281 19.074219 43.285156 19.25 42.285156 C 19.367188 41.523438 19.957031 40.757812 20.601562 40.289062 C 21.1875 39.820312 22.128906 39.46875 22.890625 39.46875 C 23.65625 39.410156 24.59375 39.644531 25.238281 40.171875 C 25.945312 40.820312 26.707031 42.402344 26.765625 43.402344 C 26.824219 44.222656 26.589844 44.8125 25.945312 45.691406 C 24.183594 47.804688 15.902344 51.796875 13.378906 53.734375 C 12.085938 54.734375 10.972656 55.203125 10.796875 56.144531 C 10.503906 57.140625 11.265625 58.257812 12.027344 59.605469 C 13.4375 62.074219 17.019531 65.300781 19.898438 69.179688 C 24.007812 74.578125 30.757812 85.792969 33.8125 89.257812 C 35.046875 90.667969 35.574219 91.3125 36.746094 91.902344 C 37.921875 92.546875 38.863281 93.132812 40.742188 92.898438 C 46.496094 92.136719 68.21875 77.808594 73.5625 74.578125 C 75.324219 73.464844 76.027344 73.113281 77.027344 72.289062 C 77.964844 71.46875 79.257812 71.058594 79.375 69.589844 C 79.785156 65.242188 66.398438 47.101562 62.347656 41.113281 C 60.351562 38.234375 59.058594 36.53125 57.589844 34.886719 C 56.535156 33.714844 55.652344 32.597656 54.480469 32.070312 C 53.363281 31.542969 52.015625 31.484375 50.78125 31.601562 C 49.605469 31.71875 48.84375 32.128906 47.257812 32.832031 C 43.558594 34.417969 35.632812 38.882812 29.46875 42.402344 C 22.714844 46.277344 11.792969 54.207031 8.328125 55.261719 C 7.332031 55.554688 6.863281 55.496094 6.273438 55.320312 C 5.628906 55.085938 4.984375 54.558594 4.691406 53.96875 C 4.335938 53.382812 4.21875 52.5625 4.335938 51.914062 C 4.453125 51.269531 5.453125 50.152344 5.453125 50.152344 " clip-rule="nonzero"/></clipPath><clipPath id="dc9f668df5"><path d="M 0.425781 0.355469 L 85.820312 0.355469 L 85.820312 78.734375 L 0.425781 78.734375 Z M 0.425781 0.355469 " clip-rule="nonzero"/></clipPath><clipPath id="c842c3faa1"><path d="M 3.453125 27.152344 C 28.933594 9.832031 35.980469 5.546875 40.738281 3.316406 C 43.789062 1.964844 46.257812 1.085938 48.429688 0.671875 C 49.957031 0.4375 51.011719 0.4375 52.363281 0.671875 C 53.773438 0.910156 55.414062 1.4375 56.707031 2.199219 C 57.941406 2.90625 58.878906 3.726562 60.054688 4.902344 C 61.699219 6.488281 63.226562 8.070312 65.457031 11.066406 C 70.09375 17.40625 82.25 37.253906 84.65625 42.65625 C 85.417969 44.359375 85.652344 45.003906 85.710938 46.238281 C 85.828125 47.585938 85.710938 49.230469 85.242188 50.464844 C 84.773438 51.636719 83.890625 52.519531 83.070312 53.398438 C 82.25 54.28125 81.777344 54.691406 80.191406 55.808594 C 74.96875 59.449219 50.191406 73.65625 44.082031 76.59375 C 42.085938 77.53125 41.382812 77.882812 40.03125 78.175781 C 38.625 78.472656 37.039062 78.707031 35.628906 78.472656 C 34.160156 78.234375 32.867188 77.707031 31.402344 76.769531 C 29.347656 75.476562 27.234375 73.480469 24.765625 70.71875 C 20.832031 66.140625 15.253906 56.277344 11.203125 50.875 C 8.265625 46.941406 4.804688 43.652344 3.101562 41.070312 C 2.101562 39.542969 1.574219 38.484375 1.105469 37.195312 C 0.691406 35.960938 0.457031 34.847656 0.515625 33.496094 C 0.574219 31.851562 0.691406 29.796875 1.75 28.152344 C 3.101562 26.039062 6.386719 24.277344 9.089844 22.515625 C 12.082031 20.519531 16.722656 17.878906 18.953125 17.054688 C 19.953125 16.644531 20.539062 16.410156 21.300781 16.46875 C 22.066406 16.527344 22.945312 16.9375 23.535156 17.464844 C 24.121094 17.996094 24.648438 18.757812 24.707031 19.578125 C 24.824219 20.578125 24.414062 22.28125 23.652344 22.984375 C 22.886719 23.75 21.183594 24.160156 20.1875 24.042969 C 19.363281 23.925781 18.601562 23.457031 18.074219 22.808594 C 17.484375 21.988281 17.074219 20.285156 17.25 19.285156 C 17.367188 18.523438 17.957031 17.757812 18.601562 17.289062 C 19.1875 16.820312 20.128906 16.46875 20.890625 16.46875 C 21.65625 16.410156 22.59375 16.644531 23.238281 17.171875 C 23.945312 17.820312 24.707031 19.402344 24.765625 20.402344 C 24.824219 21.222656 24.589844 21.8125 23.945312 22.691406 C 22.183594 24.804688 13.902344 28.796875 11.378906 30.734375 C 10.085938 31.734375 8.972656 32.203125 8.796875 33.144531 C 8.503906 34.140625 9.265625 35.257812 10.027344 36.605469 C 11.4375 39.074219 15.019531 42.300781 17.898438 46.179688 C 22.007812 51.578125 28.757812 62.792969 31.8125 66.257812 C 33.046875 67.667969 33.574219 68.3125 34.746094 68.902344 C 35.921875 69.546875 36.863281 70.132812 38.742188 69.898438 C 44.496094 69.136719 66.21875 54.808594 71.5625 51.578125 C 73.324219 50.464844 74.027344 50.113281 75.027344 49.289062 C 75.964844 48.46875 77.257812 48.058594 77.375 46.589844 C 77.785156 42.242188 64.398438 24.101562 60.347656 18.113281 C 58.351562 15.234375 57.058594 13.53125 55.589844 11.886719 C 54.535156 10.714844 53.652344 9.597656 52.480469 9.070312 C 51.363281 8.542969 50.015625 8.484375 48.78125 8.601562 C 47.605469 8.71875 46.84375 9.128906 45.257812 9.832031 C 41.558594 11.417969 33.632812 15.882812 27.46875 19.402344 C 20.714844 23.277344 9.792969 31.207031 6.328125 32.261719 C 5.332031 32.554688 4.863281 32.496094 4.273438 32.320312 C 3.628906 32.085938 2.984375 31.558594 2.691406 30.96875 C 2.335938 30.382812 2.21875 29.5625 2.335938 28.914062 C 2.453125 28.269531 3.453125 27.152344 3.453125 27.152344 " clip-rule="nonzero"/></clipPath><clipPath id="7d5ff28c11"><rect x="0" width="86" y="0" height="79"/></clipPath><clipPath id="04c730e770"><path d="M 61.160156 2.523438 L 116.496094 2.523438 L 116.496094 64.863281 L 61.160156 64.863281 Z M 61.160156 2.523438 " clip-rule="nonzero"/></clipPath><clipPath id="03b1f6bd43"><path d="M 61.410156 31.777344 C 65.402344 15.21875 65.695312 14.398438 66.398438 12.929688 C 67.339844 10.933594 68.863281 7.9375 70.273438 6.292969 C 71.273438 5.0625 72.269531 4.121094 73.503906 3.535156 C 74.738281 2.886719 76.144531 2.535156 77.496094 2.535156 C 78.847656 2.535156 80.195312 2.769531 81.605469 3.476562 C 83.660156 4.472656 86.011719 6.765625 88.007812 8.703125 C 90.0625 10.699219 91.46875 12.460938 93.644531 15.335938 C 97.105469 19.976562 102.449219 29.191406 106.148438 34.417969 C 108.851562 38.234375 111.902344 41.640625 113.546875 44.046875 C 114.488281 45.398438 115.132812 46.160156 115.601562 47.335938 C 116.070312 48.511719 116.484375 49.800781 116.425781 51.035156 C 116.425781 52.328125 116.128906 53.851562 115.367188 54.910156 C 114.664062 55.96875 113.371094 56.730469 112.136719 57.316406 C 110.847656 57.90625 109.90625 58.023438 107.851562 58.492188 C 103.214844 59.664062 85.304688 64.890625 84.425781 63.71875 C 84.132812 63.363281 85.480469 61.898438 85.421875 61.898438 C 85.363281 61.839844 84.484375 63.542969 83.777344 64.011719 C 83.074219 64.421875 82.015625 64.714844 81.195312 64.65625 C 80.3125 64.597656 79.316406 64.1875 78.730469 63.601562 C 78.082031 63.070312 77.554688 62.132812 77.378906 61.308594 C 77.203125 60.488281 77.261719 59.429688 77.730469 58.667969 C 78.257812 57.726562 79.726562 56.496094 80.902344 56.320312 C 82.015625 56.144531 83.777344 56.789062 84.601562 57.667969 C 85.363281 58.492188 85.832031 60.3125 85.539062 61.484375 C 85.304688 62.601562 83.953125 63.953125 82.957031 64.421875 C 82.132812 64.773438 81.078125 64.714844 80.3125 64.480469 C 79.492188 64.246094 78.554688 63.71875 78.082031 62.953125 C 77.554688 62.015625 77.085938 60.195312 77.554688 59.078125 C 78.140625 57.667969 79.84375 56.730469 82.191406 55.671875 C 87.125 53.382812 106.207031 54.148438 107.792969 49.976562 C 109.144531 46.335938 99.339844 38.882812 96.109375 34.007812 C 93.464844 30.074219 91.707031 26.316406 89.472656 23.085938 C 87.59375 20.328125 85.65625 17.917969 83.660156 15.6875 C 81.898438 13.691406 79.785156 10.34375 78.140625 10.167969 C 77.027344 10.050781 75.851562 11.460938 74.972656 12.339844 C 74.207031 13.222656 73.738281 14.339844 73.152344 15.394531 C 72.5625 16.628906 72.035156 17.507812 71.390625 19.269531 C 70.097656 22.558594 68.21875 31.953125 66.691406 34.183594 C 66.164062 34.945312 65.695312 35.242188 65.046875 35.417969 C 64.460938 35.652344 63.582031 35.59375 62.992188 35.300781 C 62.40625 35.0625 61.761719 34.417969 61.527344 33.832031 C 61.230469 33.246094 61.410156 31.777344 61.410156 31.777344 " clip-rule="nonzero"/></clipPath><clipPath id="56ae36ad47"><path d="M 0.160156 0.523438 L 55.496094 0.523438 L 55.496094 62.863281 L 0.160156 62.863281 Z M 0.160156 0.523438 " clip-rule="nonzero"/></clipPath><clipPath id="08758d0bf7"><path d="M 0.410156 29.777344 C 4.402344 13.21875 4.695312 12.398438 5.398438 10.929688 C 6.339844 8.933594 7.863281 5.9375 9.273438 4.292969 C 10.273438 3.0625 11.269531 2.121094 12.503906 1.535156 C 13.738281 0.886719 15.144531 0.535156 16.496094 0.535156 C 17.847656 0.535156 19.195312 0.769531 20.605469 1.476562 C 22.660156 2.472656 25.011719 4.765625 27.007812 6.703125 C 29.0625 8.699219 30.46875 10.460938 32.644531 13.335938 C 36.105469 17.976562 41.449219 27.191406 45.148438 32.417969 C 47.851562 36.234375 50.902344 39.640625 52.546875 42.046875 C 53.488281 43.398438 54.132812 44.160156 54.601562 45.335938 C 55.070312 46.511719 55.484375 47.800781 55.425781 49.035156 C 55.425781 50.328125 55.128906 51.851562 54.367188 52.910156 C 53.664062 53.96875 52.371094 54.730469 51.136719 55.316406 C 49.847656 55.90625 48.90625 56.023438 46.851562 56.492188 C 42.214844 57.664062 24.304688 62.890625 23.425781 61.71875 C 23.132812 61.363281 24.480469 59.898438 24.421875 59.898438 C 24.363281 59.839844 23.484375 61.542969 22.777344 62.011719 C 22.074219 62.421875 21.015625 62.714844 20.195312 62.65625 C 19.3125 62.597656 18.316406 62.1875 17.730469 61.601562 C 17.082031 61.070312 16.554688 60.132812 16.378906 59.308594 C 16.203125 58.488281 16.261719 57.429688 16.730469 56.667969 C 17.257812 55.726562 18.726562 54.496094 19.902344 54.320312 C 21.015625 54.144531 22.777344 54.789062 23.601562 55.667969 C 24.363281 56.492188 24.832031 58.3125 24.539062 59.484375 C 24.304688 60.601562 22.953125 61.953125 21.957031 62.421875 C 21.132812 62.773438 20.078125 62.714844 19.3125 62.480469 C 18.492188 62.246094 17.554688 61.71875 17.082031 60.953125 C 16.554688 60.015625 16.085938 58.195312 16.554688 57.078125 C 17.140625 55.667969 18.84375 54.730469 21.191406 53.671875 C 26.125 51.382812 45.207031 52.148438 46.792969 47.976562 C 48.144531 44.335938 38.339844 36.882812 35.109375 32.007812 C 32.464844 28.074219 30.707031 24.316406 28.472656 21.085938 C 26.59375 18.328125 24.65625 15.917969 22.660156 13.6875 C 20.898438 11.691406 18.785156 8.34375 17.140625 8.167969 C 16.027344 8.050781 14.851562 9.460938 13.972656 10.339844 C 13.207031 11.222656 12.738281 12.339844 12.152344 13.394531 C 11.5625 14.628906 11.035156 15.507812 10.390625 17.269531 C 9.097656 20.558594 7.21875 29.953125 5.691406 32.183594 C 5.164062 32.945312 4.695312 33.242188 4.046875 33.417969 C 3.460938 33.652344 2.582031 33.59375 1.992188 33.300781 C 1.40625 33.0625 0.761719 32.417969 0.527344 31.832031 C 0.230469 31.246094 0.410156 29.777344 0.410156 29.777344 " clip-rule="nonzero"/></clipPath><clipPath id="fe948d5716"><rect x="0" width="56" y="0" height="63"/></clipPath><clipPath id="c0775f5e0e"><rect x="0" width="119" y="0" height="104"/></clipPath></defs><g transform="matrix(1, 0, 0, 1, 8, 15)"><g clip-path="url(#c0775f5e0e)"><g clip-path="url(#48d575180c)"><g clip-path="url(#a486c0843f)"><g transform="matrix(1, 0, 0, 1, 3, 25)"><g clip-path="url(#15e46d1d6c)"><g clip-path="url(#c92bc609db)"><g clip-path="url(#f8b09fe774)"><rect x="-60.14" width="233.28" fill="#ffa629" y="-89.140001" height="233.280005" fill-opacity="1"/></g></g></g></g></g></g><g clip-path="url(#5459c57491)"><g clip-path="url(#a25fe495a8)"><g transform="matrix(1, 0, 0, 1, 63, 6)"><g clip-path="url(#9abf0f2e34)"><g clip-path="url(#33a4242b0d)"><g clip-path="url(#513b587df1)"><rect x="-120.14" width="233.28" fill="#ffa629" y="-70.140001" height="233.280005" fill-opacity="1"/></g></g></g></g></g></g><g clip-path="url(#6b7a556c50)"><g clip-path="url(#b4dfae371b)"><g transform="matrix(1, 0, 0, 1, 8, 11)"><g clip-path="url(#b030cf4357)"><g clip-path="url(#b1d4131c4f)"><g clip-path="url(#07c831f89f)"><rect x="-65.14" width="233.28" fill="#ffa629" y="-75.140001" height="233.280005" fill-opacity="1"/></g></g></g></g></g></g><g clip-path="url(#8f8c9951de)"><g clip-path="url(#e5e780c6d5)"><g transform="matrix(1, 0, 0, 1, 33, 58)"><g clip-path="url(#e1e5a3cc5a)"><g clip-path="url(#09bcf20b0f)"><g clip-path="url(#2b310ce2b8)"><rect x="-90.14" width="233.28" fill="#ffa629" y="-122.140001" height="233.280005" fill-opacity="1"/></g></g></g></g></g></g><g clip-path="url(#ba7830225f)"><g clip-path="url(#f68323d896)"><g transform="matrix(1, 0, 0, 1, 14, 41)"><g clip-path="url(#bc5d1eaf65)"><g clip-path="url(#231752b33e)"><g clip-path="url(#b03b021140)"><rect x="-71.14" width="233.28" fill="#ffa629" y="-105.140001" height="233.280005" fill-opacity="1"/></g></g></g></g></g></g><g clip-path="url(#bf9ede3909)"><g clip-path="url(#b58d71e19f)"><g transform="matrix(1, 0, 0, 1, 61, 5)"><g clip-path="url(#595f46e6d7)"><g clip-path="url(#d27797239e)"><g clip-path="url(#93942f2675)"><rect x="-118.14" width="233.28" fill="#ffa629" y="-69.140001" height="233.280005" fill-opacity="1"/></g></g></g></g></g></g><g clip-path="url(#54b08cd7e5)"><g clip-path="url(#c9b4e734da)"><g transform="matrix(1, 0, 0, 1, 2, 23)"><g clip-path="url(#7d5ff28c11)"><g clip-path="url(#dc9f668df5)"><g clip-path="url(#c842c3faa1)"><rect x="-59.14" width="233.28" fill="#1e1e1e" y="-87.140001" height="233.280005" fill-opacity="1"/></g></g></g></g></g></g><g clip-path="url(#04c730e770)"><g clip-path="url(#03b1f6bd43)"><g transform="matrix(1, 0, 0, 1, 61, 2)"><g clip-path="url(#fe948d5716)"><g clip-path="url(#56ae36ad47)"><g clip-path="url(#08758d0bf7)"><rect x="-118.14" width="233.28" fill="#1e1e1e" y="-66.140001" height="233.280005" fill-opacity="1"/></g></g></g></g></g></g></g></g></svg>